<svg width="134.375" height="34.375" viewBox="0 0 134.375 34.375" xmlns="http://www.w3.org/2000/svg"><g id="svgGroup" stroke-linecap="round" fill-rule="evenodd" font-size="9pt" stroke="#000" stroke-width="0.25mm" fill="#000" style="stroke:#000;stroke-width:0.25mm;fill:#000"><path d="M 128.125 31.25 L 125 31.25 L 125 12.5 L 121.875 12.5 L 121.875 9.375 L 125 9.375 L 125 3.125 L 128.125 3.125 L 128.125 9.375 L 134.375 9.375 L 134.375 12.5 L 128.125 12.5 L 128.125 31.25 Z M 81.25 34.375 L 78.125 34.375 L 78.125 0 L 81.25 0 L 81.25 34.375 Z M 56.25 31.25 L 59.375 31.25 L 59.375 34.375 L 62.5 34.375 L 62.5 9.375 L 59.375 9.375 L 59.375 28.125 L 56.25 28.125 L 56.25 31.25 Z M 50 31.25 L 46.875 31.25 L 46.875 9.375 L 50 9.375 L 50 31.25 Z M 12.5 34.375 L 9.375 34.375 L 9.375 15.625 L 12.5 15.625 L 12.5 34.375 Z M 6.25 9.375 L 3.125 9.375 L 3.125 3.125 L 0 3.125 L 0 0 L 6.25 0 L 6.25 9.375 Z M 15.625 9.375 L 18.75 9.375 L 18.75 3.125 L 21.875 3.125 L 21.875 0 L 15.625 0 L 15.625 9.375 Z M 28.125 28.125 L 25 28.125 L 25 15.625 L 28.125 15.625 L 28.125 28.125 Z M 40.625 28.125 L 43.75 28.125 L 43.75 15.625 L 40.625 15.625 L 40.625 28.125 Z M 87.5 28.125 L 84.375 28.125 L 84.375 15.625 L 87.5 15.625 L 87.5 28.125 Z M 100 28.125 L 103.125 28.125 L 103.125 15.625 L 100 15.625 L 100 28.125 Z M 109.375 12.5 L 115.625 12.5 L 115.625 15.625 L 118.75 15.625 L 118.75 9.375 L 109.375 9.375 L 109.375 12.5 Z M 9.375 15.625 L 6.25 15.625 L 6.25 9.375 L 9.375 9.375 L 9.375 15.625 Z M 12.5 15.625 L 15.625 15.625 L 15.625 9.375 L 12.5 9.375 L 12.5 15.625 Z M 37.5 34.375 L 31.25 34.375 L 31.25 31.25 L 37.5 31.25 L 37.5 34.375 Z M 31.25 12.5 L 37.5 12.5 L 37.5 9.375 L 31.25 9.375 L 31.25 12.5 Z M 56.25 34.375 L 50 34.375 L 50 31.25 L 56.25 31.25 L 56.25 34.375 Z M 96.875 34.375 L 90.625 34.375 L 90.625 31.25 L 96.875 31.25 L 96.875 34.375 Z M 90.625 12.5 L 96.875 12.5 L 96.875 9.375 L 90.625 9.375 L 90.625 12.5 Z M 115.625 34.375 L 109.375 34.375 L 109.375 31.25 L 115.625 31.25 L 115.625 34.375 Z M 115.625 31.25 L 118.75 31.25 L 118.75 25 L 115.625 25 L 115.625 31.25 Z M 109.375 18.75 L 106.25 18.75 L 106.25 12.5 L 109.375 12.5 L 109.375 18.75 Z M 134.375 34.375 L 128.125 34.375 L 128.125 31.25 L 134.375 31.25 L 134.375 34.375 Z M 31.25 31.25 L 28.125 31.25 L 28.125 28.125 L 31.25 28.125 L 31.25 31.25 Z M 37.5 31.25 L 40.625 31.25 L 40.625 28.125 L 37.5 28.125 L 37.5 31.25 Z M 28.125 15.625 L 31.25 15.625 L 31.25 12.5 L 28.125 12.5 L 28.125 15.625 Z M 40.625 15.625 L 37.5 15.625 L 37.5 12.5 L 40.625 12.5 L 40.625 15.625 Z M 90.625 31.25 L 87.5 31.25 L 87.5 28.125 L 90.625 28.125 L 90.625 31.25 Z M 96.875 31.25 L 100 31.25 L 100 28.125 L 96.875 28.125 L 96.875 31.25 Z M 87.5 15.625 L 90.625 15.625 L 90.625 12.5 L 87.5 12.5 L 87.5 15.625 Z M 100 15.625 L 96.875 15.625 L 96.875 12.5 L 100 12.5 L 100 15.625 Z M 109.375 31.25 L 106.25 31.25 L 106.25 28.125 L 109.375 28.125 L 109.375 31.25 Z M 115.625 25 L 112.5 25 L 112.5 21.875 L 115.625 21.875 L 115.625 25 Z M 112.5 21.875 L 109.375 21.875 L 109.375 18.75 L 112.5 18.75 L 112.5 21.875 Z" vector-effect="non-scaling-stroke"/></g></svg>